<svg id="Layer_1" data-name="Layer 1" xmlns="http://www.w3.org/2000/svg" viewBox="0 0 384.75 384.75"><defs><style>.cls-1{fill:#fff;}</style></defs><title>d-iron-feetings</title><path d="M306.75,40.5H357c1,.45,2,.88,3,1.34a14.42,14.42,0,0,1,8.85,12.11,13.88,13.88,0,0,1-6.4,13.87,5.16,5.16,0,0,0-2.66,5.11c.12,7.75.1,15.5,0,23.25,0,4.1-2.25,6.56-5.63,6.57s-5.53-2.42-5.58-6.54c-.06-5.25,0-10.5,0-15.75,0-3.2,0-6.39,0-9.66H315.77v269.7h32.86v-5.12q0-106.49,0-213c0-1.5-.48-3.32.2-4.42,1.12-1.83,2.74-3.88,4.62-4.57,2.57-.94,5,.6,5.85,3.33a16.91,16.91,0,0,1,.56,5.16q0,69.56,0,139.12v5.06h5q32.25,0,64.5,0c5.34,0,7.16,1.87,7.17,7.23q0,20.06,0,40.12c0,6.58-1.62,8.22-8.14,8.23H359.87c0,4.39.13,8.36,0,12.32-.19,4.54-.4,8.83,4.66,11.34,1.37.68,2.49,2.6,3,4.18,1,3.16,1.4,6.47,2.12,10,2.9.33,5.6.76,8.14-2.95,5.7-8.33,18.25-8,23.94.42a5.59,5.59,0,0,0,5.46,2.79c7.37-.11,14.75-.07,22.12,0,5.38,0,7.24,1.88,7.25,7.17q0,20.62,0,41.25c0,5.23-2,7.18-7.3,7.21-7.62,0-15.25-.1-22.87.11a6,6,0,0,0-4.14,2.09c-6.55,9.14-18.77,9.17-25.38.05a5.86,5.86,0,0,0-4.09-2.14c-27-.13-54-.06-81-.15-2.29,0-3.47.79-4.75,2.65a14.7,14.7,0,0,1-24.23.25,6.06,6.06,0,0,0-5.76-2.9q-98.06.1-196.11.1c-3.48,0-6.4-.6-8.37-3.7V363c2.24-2.72,5.14-3.49,8.58-3.3,3.86.22,7.75,0,11.62,0H88.14a7.64,7.64,0,0,0,.5-1.15,5.66,5.66,0,0,0,.08-1.12c-.13-7.21,2.41-12.65,9.74-15.09a3,3,0,0,0,1.57-2.11,58.22,58.22,0,0,0,.07-6.35H95.63c-5.87,0-11.76.13-17.62-.14a15.06,15.06,0,0,1,.2-30.07c4-.2,8-.12,12-.1,4.46,0,7,2,7.13,5.41s-2.65,5.77-7.2,5.82c-3.5,0-7,0-10.5,0-2.67,0-4.47,1.27-4.44,4s1.9,3.89,4.54,3.86c.87,0,1.75,0,2.62,0H151c.62,0,1.25,0,1.87,0,2.87.13,5.21-.82,5.15-4s-2.5-3.86-5.32-3.85c-12,.05-24,0-36,0a19,19,0,0,1-3.37-.11c-3.1-.56-4.89-2.47-5-5.64a5.25,5.25,0,0,1,5.51-5.42c14-.06,28-.26,42,.16,8.59.26,14.81,9.06,13.21,17.53-1.38,7.25-6.89,12.23-14.32,12.45-7.07.21-14.16,0-21.12,0-1.28,6.68-1.12,7,3.86,9.68a12.34,12.34,0,0,1,6.72,9.79c.25,2,.4,4.11.59,6.18.85.1,1.33.21,1.82.21q55.87,0,111.75-.09c1.33,0,3.05-1.32,3.92-2.51,6-8.28,18.28-9,24.06-.76,2.61,3.72,5.34,3.62,9.19,3.09-1-7.34,1.23-13.16,7.76-16.92a2.49,2.49,0,0,0,1-1.84c.07-6.22,0-12.43,0-18.75a20,20,0,0,0-2.19-.28c-16.62,0-33.25-.06-49.87.09-1.24,0-2.82,1.22-3.65,2.31-5.69,7.5-16.56,9-22.51,2.07-3.48-4.07-7.21-4.87-11.79-5.19a46.74,46.74,0,0,1-6.65-1.06C171.58,312,146,282.73,143.06,246a6,6,0,0,0-2.08-3.87c-9.17-6.74-9.23-18.44-.11-25.39a5.21,5.21,0,0,0,1.87-3.56q.18-24.37,0-48.75a5.25,5.25,0,0,0-1.84-3.59c-9.17-7.12-9.14-18.25.08-25.36a4.87,4.87,0,0,0,1.75-3.26,26.42,26.42,0,0,0-22.43-26.43,4.4,4.4,0,0,0-4.94,2.11A14.71,14.71,0,0,1,90.9,108,5,5,0,0,0,86,105.58c-8.5.09-17-.08-25.5.1-3.41.07-6.09-.81-8-3.67V53.25c2.22-2.74,5.11-3.38,8.54-3.31,8.34.18,16.7.09,25,0,1.14,0,3-.19,3.31-.88,2.28-4.37,6.22-6.54,10.35-8.58h6.75c3,2.25,6.42,4.16,8.95,6.88,1.58,1.7,2.75,2.7,5.12,2.76a74.23,74.23,0,0,1,36.37,10.29c26.62,15.74,40.36,39.29,41.54,70.15a5.84,5.84,0,0,0,2.92,5.38c8.93,6,8.53,18.82-.46,25a5.42,5.42,0,0,0-2.27,3.64c-.15,16.12-.13,32.24,0,48.36a4.64,4.64,0,0,0,1.64,3.28c10.14,7.22,10.27,18.9.28,26.13a3.79,3.79,0,0,0-1.21,3.2c2.63,10.53,9.44,17,19.85,19.77,2,.54,3.24,0,4.53-2a14.75,14.75,0,0,1,24.88,0,5.2,5.2,0,0,0,5.08,2.75c15.5-.09,31,0,46.49-.06,1.21,0,2.43-.12,3.9-.19.08-1.45.21-2.66.21-3.88q0-94.48.06-189a5.85,5.85,0,0,0-2.89-5.41A14.9,14.9,0,0,1,303.85,42C304.83,41.52,305.78,41,306.75,40.5ZM259.46,371H142.92c-1.12,0-2.25,0-3.37,0-4.27-.22-6.15-2-6.31-6.27-.11-2.75-.09-5.5,0-8.25.06-2.37-.93-3.31-3.36-3.29q-13.31.14-26.61,0c-2.53,0-3.31,1.11-3.26,3.4q.09,3.93,0,7.87c-.12,4.46-2,6.41-6.42,6.51-4.87.11-9.75,0-14.62,0H64v32.91H259.46ZM186.78,133.17C192.6,99.63,149.14,54.62,118.21,62c0,5.28,0,10.63,0,16s0,10.89,0,16.15c3,.59,5.5.93,7.89,1.57a37.13,37.13,0,0,1,27.73,33.81c.18,2.84,1,3.94,3.94,3.77,4.36-.25,8.74-.06,13.11-.06ZM289.93,403.9H374.1V371.28H289.93ZM221,277.21c-19.25-4-27-11.49-33.68-32.47H154.54c1.32,37.28,34.93,65.51,66.46,65.11Zm204.09.41h-65v32.55h65Zm-173.64-.13v32.67H304V277.48ZM187,214.19V163.64H154.42v50.55ZM64,61.45v32.7H87.77V61.45ZM425,404V371.34H404.88V404ZM107,77.63q0-10.12,0-20.23c0-2.85-.46-5.6-4-5.49-3.29.1-3.69,2.77-3.68,5.46q0,20.23,0,40.46c0,2.76.6,5.32,3.84,5.33s3.89-2.52,3.87-5.29C106.94,91.12,107,84.37,107,77.63ZM331.85,352.08H311.66c-2.58,0-5,.48-5.06,3.63-.11,3.35,2.28,4,5.05,4h40.76c2.72,0,5.26-.53,5.27-3.85s-2.55-3.83-5.27-3.82C345.56,352.09,338.71,352.08,331.85,352.08ZM171,225.66c-6.73,0-13.47,0-20.2,0-2.69,0-5.27.25-5.32,3.69s2.37,3.93,5.14,3.92q20.39,0,40.78,0c2.78,0,5.17-.59,5.14-3.94,0-3.16-2.33-3.69-5-3.68C184.7,225.68,177.84,225.66,171,225.66Zm61.45,68c0,6.87,0,13.74,0,20.6,0,2.74.79,4.93,3.78,4.93S240,317,240,314.24q-.06-20.6,0-41.21c0-2.85-.79-5.21-4-5.12-3,.09-3.63,2.44-3.6,5.1C232.47,279.89,232.43,286.76,232.43,293.62Zm99.8-241.87c-6.86,0-13.72,0-20.58,0-2.82,0-5.15.65-5.05,4,.09,3.15,2.42,3.63,5,3.62q20.39,0,40.78,0c2.74,0,5.27-.44,5.26-3.79s-2.48-3.85-5.25-3.83C345.7,51.78,339,51.75,332.23,51.75ZM278.49,387.37c0-6.87,0-13.73,0-20.6,0-2.71-.8-4.91-3.85-4.86s-3.79,2.31-3.79,5q0,20.6,0,41.2c0,2.65.73,5,3.74,5,3.35.1,3.91-2.4,3.89-5.17C278.47,401.1,278.49,394.24,278.49,387.37Zm107.14,0c0,6.74,0,13.48,0,20.23,0,2.87.49,5.58,4,5.54,3.34,0,3.66-2.72,3.66-5.41q0-20.23,0-40.45c0-2.74-.42-5.35-3.73-5.35-3.52,0-3.94,2.74-3.92,5.6C385.66,374.13,385.63,380.75,385.63,387.37ZM171.17,144.42H151c-2.77,0-5.58.19-5.5,3.9.07,3.35,2.66,3.78,5.34,3.78h40.38c2.69,0,5.24-.46,5.33-3.81s-2.45-3.88-5.16-3.88ZM111.6,341.7h9.92v-7.25H111.6Z" transform="translate(-52.5 -40.5)"/><path class="cls-1" d="M52.5,411.75c2,3.1,4.89,3.71,8.37,3.7q98.06-.09,196.11-.1a6.06,6.06,0,0,1,5.76,2.9A14.7,14.7,0,0,0,287,418c1.28-1.86,2.46-2.65,4.75-2.65,27,.08,54,0,81,.15a5.86,5.86,0,0,1,4.09,2.14c6.61,9.11,18.83,9.09,25.38-.05a6,6,0,0,1,4.14-2.09c7.62-.2,15.25-.07,22.87-.11,5.32,0,7.29-2,7.3-7.21q0-20.62,0-41.25c0-5.3-1.87-7.14-7.25-7.17-7.37,0-14.75-.09-22.12,0a5.59,5.59,0,0,1-5.46-2.79c-5.69-8.39-18.24-8.75-23.94-.42-2.54,3.7-5.23,3.27-8.14,2.95-.72-3.55-1.16-6.87-2.12-10-.48-1.58-1.6-3.5-3-4.18-5.06-2.51-4.84-6.8-4.66-11.34.16-4,0-7.94,0-12.32h68.49c6.51,0,8.13-1.64,8.14-8.23q0-20.06,0-40.12c0-5.37-1.83-7.23-7.17-7.23q-32.25,0-64.5,0h-5V261q0-69.56,0-139.12a16.91,16.91,0,0,0-.56-5.16c-.89-2.73-3.28-4.27-5.85-3.33-1.88.69-3.5,2.75-4.62,4.57-.68,1.1-.2,2.92-.2,4.42q0,106.49,0,213v5.12H315.77V70.81h32.86c0,3.27,0,6.46,0,9.66,0,5.25,0,10.5,0,15.75,0,4.11,2.18,6.55,5.58,6.54s5.59-2.48,5.63-6.57c.07-7.75.1-15.5,0-23.25a5.16,5.16,0,0,1,2.66-5.11,13.88,13.88,0,0,0,6.4-13.87A14.42,14.42,0,0,0,360,41.84c-1-.46-2-.89-3-1.34h80.25V425.25H52.5Q52.5,418.5,52.5,411.75Z" transform="translate(-52.5 -40.5)"/><path class="cls-1" d="M52.5,102c1.92,2.86,4.6,3.74,8,3.67,8.5-.17,17,0,25.5-.1A5,5,0,0,1,90.9,108a14.71,14.71,0,0,0,24.45-.05,4.4,4.4,0,0,1,4.94-2.11,26.42,26.42,0,0,1,22.43,26.43,4.87,4.87,0,0,1-1.75,3.26c-9.22,7.11-9.25,18.24-.08,25.36a5.25,5.25,0,0,1,1.84,3.59q.18,24.37,0,48.75a5.21,5.21,0,0,1-1.87,3.56c-9.12,6.95-9.06,18.66.11,25.39a6,6,0,0,1,2.08,3.87c3,36.7,28.52,66,64.54,73.87a46.74,46.74,0,0,0,6.65,1.06c4.58.32,8.31,1.12,11.79,5.19,6,7,16.82,5.42,22.51-2.07.83-1.1,2.41-2.3,3.65-2.31,16.62-.15,33.25-.1,49.87-.09a20,20,0,0,1,2.19.28c0,6.31,0,12.53,0,18.75a2.49,2.49,0,0,1-1,1.84c-6.53,3.76-8.72,9.58-7.76,16.92-3.85.52-6.58.62-9.19-3.09-5.78-8.24-18.06-7.52-24.06.76-.86,1.19-2.59,2.51-3.92,2.51q-55.87.2-111.75.09c-.49,0-1-.11-1.82-.21-.19-2.07-.34-4.13-.59-6.18a12.34,12.34,0,0,0-6.72-9.79c-5-2.71-5.14-3-3.86-9.68,7,0,14,.17,21.12,0,7.43-.23,12.94-5.21,14.32-12.45,1.61-8.47-4.62-17.27-13.21-17.53-14-.42-28-.22-42-.16a5.25,5.25,0,0,0-5.51,5.42c.09,3.18,1.89,5.08,5,5.64a19,19,0,0,0,3.37.11c12,0,24,0,36,0,2.82,0,5.26.66,5.32,3.85s-2.28,4.13-5.15,4c-.62,0-1.25,0-1.87,0H82.36c-.87,0-1.75,0-2.62,0-2.64,0-4.52-1.15-4.54-3.86s1.77-4,4.44-4c3.5,0,7,0,10.5,0,4.55,0,7.31-2.3,7.2-5.82s-2.66-5.39-7.13-5.41c-4,0-8-.1-12,.1a15.06,15.06,0,0,0-.2,30.07c5.86.28,11.75.11,17.62.14h4.47a58.22,58.22,0,0,1-.07,6.35,3,3,0,0,1-1.57,2.11c-7.33,2.44-9.87,7.88-9.74,15.09a5.66,5.66,0,0,1-.08,1.12,7.64,7.64,0,0,1-.5,1.15H72.71c-3.87,0-7.76.17-11.62,0-3.45-.19-6.34.58-8.58,3.3Z" transform="translate(-52.5 -40.5)"/><path class="cls-1" d="M306.75,40.5c-1,.5-1.92,1-2.9,1.49a14.9,14.9,0,0,0-2.4,25.63A5.85,5.85,0,0,1,304.34,73q-.1,94.48-.06,189c0,1.22-.13,2.43-.21,3.88-1.47.07-2.69.19-3.9.19-15.5,0-31,0-46.49.06a5.2,5.2,0,0,1-5.08-2.75,14.75,14.75,0,0,0-24.88,0c-1.29,1.94-2.49,2.51-4.53,2-10.41-2.78-17.22-9.24-19.85-19.77a3.79,3.79,0,0,1,1.21-3.2c10-7.23,9.86-18.91-.28-26.13a4.64,4.64,0,0,1-1.64-3.28c-.1-16.12-.12-32.24,0-48.36a5.42,5.42,0,0,1,2.27-3.64c9-6.2,9.39-19,.46-25a5.84,5.84,0,0,1-2.92-5.38c-1.17-30.86-14.91-54.41-41.54-70.15a74.23,74.23,0,0,0-36.37-10.29c-2.37-.06-3.55-1.06-5.12-2.76-2.53-2.72-5.92-4.63-8.95-6.88Z" transform="translate(-52.5 -40.5)"/><path class="cls-1" d="M99.75,40.5c-4.12,2-8.07,4.21-10.35,8.58-.36.69-2.17.87-3.31.88-8.35.07-16.7.16-25,0-3.43-.07-6.33.56-8.54,3.31V40.5Z" transform="translate(-52.5 -40.5)"/><path class="cls-1" d="M259.46,371v32.91H64V371H78.93c4.87,0,9.75.08,14.62,0,4.45-.1,6.3-2,6.42-6.51q.11-3.93,0-7.87c-.05-2.28.73-3.43,3.26-3.4q13.31.14,26.61,0c2.44,0,3.42.91,3.36,3.29-.06,2.75-.08,5.5,0,8.25.16,4.22,2,6,6.31,6.27,1.12.06,2.25,0,3.37,0H259.46Z" transform="translate(-52.5 -40.5)"/><path class="cls-1" d="M186.78,133.17H170.88c-4.37,0-8.75-.19-13.11.06-3,.17-3.76-.93-3.94-3.77A37.13,37.13,0,0,0,126.1,95.66c-2.39-.64-4.87-1-7.89-1.57,0-5.26,0-10.7,0-16.15s0-10.7,0-16C149.14,54.62,192.6,99.63,186.78,133.17Z" transform="translate(-52.5 -40.5)"/><path class="cls-1" d="M289.93,403.9V371.28H374.1V403.9Z" transform="translate(-52.5 -40.5)"/><path class="cls-1" d="M221,277.21v32.65c-31.53.39-65.14-27.83-66.46-65.11h32.78C194,265.72,201.75,273.22,221,277.21Z" transform="translate(-52.5 -40.5)"/><path class="cls-1" d="M425.09,277.62v32.55h-65V277.62Z" transform="translate(-52.5 -40.5)"/><path class="cls-1" d="M251.46,277.48H304v32.67H251.46Z" transform="translate(-52.5 -40.5)"/><path class="cls-1" d="M187,214.19H154.42V163.64H187Z" transform="translate(-52.5 -40.5)"/><path class="cls-1" d="M64,61.45H87.77v32.7H64Z" transform="translate(-52.5 -40.5)"/><path class="cls-1" d="M425,404H404.88V371.34H425Z" transform="translate(-52.5 -40.5)"/><path class="cls-1" d="M107,77.63c0,6.74,0,13.49,0,20.23,0,2.77-.64,5.3-3.87,5.29s-3.84-2.57-3.84-5.33q0-20.23,0-40.46c0-2.69.39-5.36,3.68-5.46,3.56-.11,4,2.65,4,5.49C107,64.14,107,70.89,107,77.63Z" transform="translate(-52.5 -40.5)"/><path class="cls-1" d="M331.85,352.08c6.86,0,13.71,0,20.57,0,2.72,0,5.28.47,5.27,3.82s-2.56,3.86-5.27,3.85H311.65c-2.77,0-5.16-.69-5.05-4,.1-3.15,2.48-3.63,5.06-3.63Z" transform="translate(-52.5 -40.5)"/><path class="cls-1" d="M171,225.66c6.86,0,13.72,0,20.57,0,2.63,0,4.93.52,5,3.68,0,3.34-2.35,3.94-5.14,3.94q-20.39,0-40.78,0c-2.78,0-5.19-.57-5.14-3.92s2.63-3.71,5.32-3.69C157.52,225.68,164.25,225.66,171,225.66Z" transform="translate(-52.5 -40.5)"/><path class="cls-1" d="M232.43,293.62c0-6.87,0-13.74,0-20.6,0-2.67.59-5,3.6-5.1,3.22-.1,4,2.26,4,5.12q-.06,20.6,0,41.21c0,2.74-.87,4.91-3.83,4.92s-3.81-2.19-3.78-4.93C232.48,307.36,232.43,300.49,232.43,293.62Z" transform="translate(-52.5 -40.5)"/><path class="cls-1" d="M332.23,51.75c6.73,0,13.47,0,20.2,0,2.77,0,5.24.53,5.25,3.83s-2.52,3.8-5.26,3.79q-20.39,0-40.78,0c-2.62,0-4.94-.47-5-3.62-.1-3.35,2.23-4,5.05-4C318.51,51.78,325.37,51.75,332.23,51.75Z" transform="translate(-52.5 -40.5)"/><path class="cls-1" d="M278.49,387.37c0,6.87,0,13.73,0,20.6,0,2.76-.54,5.26-3.89,5.17-3-.09-3.74-2.39-3.74-5q0-20.6,0-41.2c0-2.67.76-4.93,3.79-5s3.86,2.15,3.85,4.86C278.46,373.64,278.49,380.5,278.49,387.37Z" transform="translate(-52.5 -40.5)"/><path class="cls-1" d="M385.63,387.37c0-6.62,0-13.23,0-19.85,0-2.86.4-5.6,3.92-5.6,3.31,0,3.74,2.62,3.73,5.35q-.05,20.23,0,40.45c0,2.69-.32,5.38-3.66,5.41-3.5,0-4-2.67-4-5.54C385.65,400.85,385.63,394.11,385.63,387.37Z" transform="translate(-52.5 -40.5)"/><path class="cls-1" d="M171.17,144.43h20.19c2.71,0,5.25.46,5.16,3.88s-2.64,3.81-5.33,3.81H150.81c-2.68,0-5.26-.43-5.34-3.78-.08-3.71,2.73-3.9,5.5-3.9Z" transform="translate(-52.5 -40.5)"/><path class="cls-1" d="M111.6,341.7v-7.25h9.92v7.25Z" transform="translate(-52.5 -40.5)"/></svg>